<svg width="40" height="40" viewBox="0 0 40 40" fill="none" xmlns="http://www.w3.org/2000/svg">
<g clip-path="url(#clip0_2126_91)">
<rect width="40" height="40" rx="5" fill="#1185FE"/>
<path d="M13.1728 11.4136C15.9087 13.4664 18.8514 17.6287 19.9319 19.8624C21.0124 17.6288 23.955 13.4663 26.691 11.4136C28.6651 9.93232 31.8636 8.78622 31.8636 12.4332C31.8636 13.1615 31.4458 18.5516 31.2008 19.4267C30.349 22.4691 27.245 23.245 24.484 22.7754C29.3102 23.5963 30.5379 26.3156 27.8865 29.0349C22.8509 34.1994 20.6489 27.7391 20.0844 26.0838C19.9809 25.7803 19.9325 25.6383 19.9318 25.7591C19.9311 25.6383 19.8827 25.7803 19.7793 26.0838C19.215 27.7391 17.013 34.1995 11.9771 29.0349C9.32566 26.3156 10.5534 23.5962 15.3796 22.7754C12.6185 23.245 9.51455 22.4691 8.66287 19.4267C8.41781 18.5516 8 13.1614 8 12.4332C8 8.78622 11.1986 9.93232 13.1726 11.4136H13.1728Z" fill="white"/>
</g>
<defs>
<clipPath id="clip0_2126_91">
<rect width="40" height="40" fill="white"/>
</clipPath>
</defs>
</svg>
