<svg width="40" height="40" viewBox="0 0 40 40" fill="none" xmlns="http://www.w3.org/2000/svg">
<rect width="40" height="40" rx="5" fill="#524C46"/>
<path d="M18.8618 12.9728C18.8618 12.3562 19.3616 11.8563 19.9782 11.8563H21.5587V28.7125H18.8618V12.9728Z" fill="white"/>
<path d="M18.8618 12.9593C18.8618 12.3427 19.3616 11.8428 19.9782 11.8428H26.8988V14.5398H18.8618V12.9593Z" fill="white"/>
<path d="M14.3106 18.9359H21.2216V21.6329H14.3106V18.9359Z" fill="white"/>
<path d="M11 27.8197C11 27.2031 11.4999 26.7032 12.1165 26.7032H26.8988V29.4002H12.1165C11.4999 29.4002 11 28.9003 11 28.2837V27.8197Z" fill="white"/>
<circle cx="26.9257" cy="13.1913" r="2.1913" fill="white"/>
<circle cx="14.3106" cy="20.2844" r="2.1913" fill="white"/>
<circle cx="26.8988" cy="28.0517" r="2.1913" fill="white"/>
</svg>
