<svg width="40" height="40" viewBox="0 0 40 40" fill="none" xmlns="http://www.w3.org/2000/svg">
<g clip-path="url(#clip0_2128_9)">
<rect width="40" height="40" rx="5" fill="#007EBB"/>
<path fill-rule="evenodd" clip-rule="evenodd" d="M9.11111 34H30.8889C32.6071 34 34 32.6071 34 30.8889V9.11111C34 7.39289 32.6071 6 30.8889 6H9.11111C7.39289 6 6 7.39289 6 9.11111V30.8889C6 32.6071 7.39289 34 9.11111 34Z" fill="#007EBB"/>
<path fill-rule="evenodd" clip-rule="evenodd" d="M30.1111 30.1111H25.9561V23.0342C25.9561 21.0939 25.2188 20.0096 23.683 20.0096C22.0123 20.0096 21.1395 21.138 21.1395 23.0342V30.1111H17.1352V16.6297H21.1395V18.4456C21.1395 18.4456 22.3435 16.2178 25.2043 16.2178C28.0639 16.2178 30.1111 17.964 30.1111 21.5755V30.1111ZM12.3581 14.8644C10.9941 14.8644 9.88889 13.7504 9.88889 12.3766C9.88889 11.0028 10.9941 9.88892 12.3581 9.88892C13.722 9.88892 14.8266 11.0028 14.8266 12.3766C14.8266 13.7504 13.722 14.8644 12.3581 14.8644ZM10.2904 30.1111H14.4659V16.6297H10.2904V30.1111Z" fill="white"/>
</g>
<defs>
<clipPath id="clip0_2128_9">
<rect width="40" height="40" fill="white"/>
</clipPath>
</defs>
</svg>
