<svg width="40" height="40" viewBox="0 0 40 40" fill="none" xmlns="http://www.w3.org/2000/svg">
<rect width="40" height="40" rx="5" fill="#0A66C2"/>
<rect x="9.36365" y="9.36365" width="21.2727" height="21.2727" fill="white"/>
<path d="M7 8.86247C7 7.83413 7.85477 7 8.90924 7H31.0908C32.1452 7 33 7.83414 33 8.86248V31.1375C33 32.1662 32.1452 33 31.0908 33L8.90924 33C7.85477 33 7 32.1662 7 31.1375V8.86247ZM15.033 28.7647V17.0242H11.1307V28.7647H15.033ZM13.0818 15.4213C14.4426 15.4213 15.2896 14.5197 15.2896 13.3931C15.2643 12.2411 14.4426 11.3645 13.1076 11.3645C11.7728 11.3645 10.9 12.2411 10.9 13.3931C10.9 14.5197 11.7468 15.4213 13.0564 15.4213H13.0818ZM21.0585 28.7647V22.2083C21.0585 21.8574 21.0839 21.5069 21.1869 21.2561C21.469 20.555 22.1111 19.8289 23.1891 19.8289C24.6012 19.8289 25.1661 20.9055 25.1661 22.4838V28.7647H29.068V22.0329C29.068 18.4267 27.1428 16.7487 24.5754 16.7487C22.5054 16.7487 21.5772 17.8865 21.0586 18.6865V18.7269H21.0326C21.0411 18.7135 21.0498 18.7 21.0586 18.6865V17.0242H17.1564C17.2076 18.1259 17.1564 28.7647 17.1564 28.7647H21.0585Z" fill="#0A66C2"/>
</svg>
