<svg width="40" height="40" viewBox="0 0 40 40" fill="none" xmlns="http://www.w3.org/2000/svg">
<g clip-path="url(#clip0_2126_78)">
<rect width="40" height="40" rx="5" fill="#3D3D3D"/>
<path d="M26.8154 13.2693H14.9545C14.5125 13.2693 14.1541 13.6276 14.1541 14.0696V25.9305C14.1541 26.3725 14.5125 26.7308 14.9545 26.7308H26.8154C27.2574 26.7308 27.6157 26.3725 27.6157 25.9305V14.0696C27.6157 13.6276 27.2574 13.2693 26.8154 13.2693Z" fill="white"/>
<path d="M29.3177 9H14.9521C14.5114 9 14.1541 9.35468 14.1541 9.7922V10.7463C14.1541 11.1838 14.5114 11.5385 14.9521 11.5385H29.3177C29.7584 11.5385 30.1157 11.1838 30.1157 10.7463V9.7922C30.1157 9.35468 29.7584 9 29.3177 9Z" fill="white"/>
<path d="M29.32 28.4614H10.7191C10.2797 28.4614 9.9234 28.8161 9.9234 29.2536V30.2077C9.9234 30.6452 10.2797 30.9999 10.7191 30.9999H29.32C29.7594 30.9999 30.1157 30.6452 30.1157 30.2077V29.2536C30.1157 28.8161 29.7594 28.4614 29.32 28.4614Z" fill="white"/>
<path d="M9.9234 9.83307L9.9234 30.1669C9.9234 30.6058 10.2727 30.9615 10.7036 30.9615H11.6432C12.0741 30.9615 12.4234 30.6058 12.4234 30.1669L12.4234 9.83307C12.4234 9.39423 12.0741 9.03847 11.6432 9.03847H10.7036C10.2727 9.03847 9.9234 9.39423 9.9234 9.83307Z" fill="white"/>
</g>
<defs>
<clipPath id="clip0_2126_78">
<rect width="40" height="40" fill="white"/>
</clipPath>
</defs>
</svg>
