<svg width="40" height="40" viewBox="0 0 40 40" fill="none" xmlns="http://www.w3.org/2000/svg">
<rect width="40" height="40" rx="5" fill="#3D3D3D"/>
<path d="M26.736 13.9958H15.7317C15.3216 13.9958 14.9892 14.3278 14.9892 14.7373V25.7261C14.9892 26.1356 15.3216 26.4675 15.7317 26.4675H26.736C27.1461 26.4675 27.4785 26.1356 27.4785 25.7261V14.7373C27.4785 14.3278 27.1461 13.9958 26.736 13.9958Z" fill="white"/>
<path d="M29.0998 10H15.7322C15.3221 10 14.9897 10.332 14.9897 10.7415V11.6344C14.9897 12.0439 15.3221 12.3759 15.7322 12.3759H29.0998C29.5099 12.3759 29.8423 12.0439 29.8423 11.6344V10.7415C29.8423 10.332 29.5099 10 29.0998 10Z" fill="white"/>
<path d="M29.0996 28.0813H11.7425C11.3324 28.0813 11 28.4132 11 28.8227V29.7157C11 30.1252 11.3324 30.4572 11.7425 30.4572H29.0996C29.5097 30.4572 29.8421 30.1252 29.8421 29.7157V28.8227C29.8421 28.4132 29.5097 28.0813 29.0996 28.0813Z" fill="white"/>
<path d="M11 10.7415L11 29.7157C11 30.1252 11.3324 30.4572 11.7425 30.4572H12.6367C13.0468 30.4572 13.3792 30.1252 13.3792 29.7157L13.3792 10.7415C13.3792 10.332 13.0468 10 12.6367 10H11.7425C11.3324 10 11 10.332 11 10.7415Z" fill="white"/>
</svg>
