<svg width="40" height="40" viewBox="0 0 40 40" fill="none" xmlns="http://www.w3.org/2000/svg">
<rect width="40" height="40" rx="5" fill="#1D9BF0"/>
<path d="M16.2825 28.75C23.8296 28.75 27.9592 22.4963 27.9592 17.0823C27.9592 16.9064 27.9592 16.7304 27.9512 16.5545C28.7516 15.9787 29.4478 15.251 30.0001 14.4273C29.2638 14.7552 28.4714 14.9711 27.6391 15.0751C28.4874 14.5712 29.1357 13.7635 29.4478 12.8039C28.6555 13.2757 27.7752 13.6116 26.8388 13.7955C26.0865 12.9958 25.022 12.5 23.8456 12.5C21.5807 12.5 19.7399 14.3393 19.7399 16.6025C19.7399 16.9224 19.7799 17.2343 19.844 17.5382C16.4346 17.3702 13.4094 15.7308 11.3846 13.2517C11.0324 13.8595 10.8323 14.5632 10.8323 15.315C10.8323 16.7384 11.5606 17.994 12.6571 18.7297C11.9848 18.7057 11.3525 18.5218 10.8003 18.2179C10.8003 18.2339 10.8003 18.2499 10.8003 18.2739C10.8003 20.2572 12.2169 21.9205 14.0896 22.2964C13.7455 22.3924 13.3854 22.4404 13.0092 22.4404C12.7451 22.4404 12.489 22.4164 12.2409 22.3684C12.7611 23.9998 14.2817 25.1833 16.0744 25.2153C14.6659 26.3189 12.8972 26.9747 10.9764 26.9747C10.6483 26.9747 10.3201 26.9587 10 26.9187C11.8087 28.0703 13.9696 28.75 16.2825 28.75Z" fill="white"/>
</svg>
